<?xml version="1.0" standalone="no"?>
<!DOCTYPE svg PUBLIC "-//W3C//DTD SVG 20010904//EN"
 "http://www.w3.org/TR/2001/REC-SVG-20010904/DTD/svg10.dtd">
<svg version="1.0" xmlns="http://www.w3.org/2000/svg"
 width="700.000000pt" height="700.000000pt" viewBox="0 0 700.000000 700.000000"
 preserveAspectRatio="xMidYMid meet">
<metadata>
Created by potrace 1.11, written by Peter Selinger 2001-2013
</metadata>
<g transform="translate(0.000000,700.000000) scale(0.100000,-0.100000)"
fill="#000000" stroke="none">
<path d="M2499 6108 c-192 -47 -314 -182 -415 -459 -30 -83 -78 -246 -94 -321
-7 -31 -16 -61 -19 -67 -5 -8 -248 -11 -798 -11 -693 0 -798 -2 -844 -16 -165
-49 -272 -159 -314 -321 -22 -84 -22 -4046 0 -4139 41 -174 191 -308 369 -331
64 -8 6163 -8 6231 0 126 15 239 85 310 192 76 115 69 -86 72 2185 2 1656 0
2045 -10 2090 -39 159 -151 275 -315 323 -29 9 -54 16 -57 17 -3 0 -360 0
-795 0 l-790 0 -6 28 c-14 63 -95 341 -113 387 -84 220 -181 345 -316 410 -38
18 -90 37 -115 41 -25 4 -465 8 -978 8 -852 1 -939 0 -1003 -16z m1186 -1333
c39 -4 77 -9 85 -10 8 -1 35 -6 60 -10 212 -33 477 -132 673 -251 80 -49 225
-154 267 -193 100 -94 133 -127 182 -182 156 -177 279 -380 363 -601 37 -97
88 -288 100 -371 3 -27 9 -59 12 -70 3 -12 7 -107 8 -212 3 -148 -1 -216 -15
-307 -10 -65 -21 -126 -25 -137 -3 -11 -7 -28 -9 -38 -33 -166 -140 -420 -251
-593 -113 -177 -284 -365 -440 -483 -44 -34 -82 -63 -85 -67 -29 -32 -305
-176 -435 -226 -84 -32 -308 -89 -385 -98 -30 -4 -84 -11 -120 -15 -62 -8
-319 -6 -370 2 -14 3 -50 8 -80 12 -418 54 -850 282 -1147 605 -220 238 -404
586 -459 863 -2 10 -6 27 -9 37 -9 29 -11 40 -35 215 -11 79 -5 406 8 470 6
28 13 68 16 90 3 22 15 76 27 120 12 44 22 84 24 90 1 5 5 17 8 25 4 8 20 52
36 96 56 154 154 332 262 474 55 73 70 90 149 175 228 244 554 438 885 528
118 32 131 35 196 43 30 3 57 8 60 10 3 2 46 6 95 10 49 3 90 7 92 9 4 4 187
-3 257 -10z m2876 -415 c4 -73 1 -412 -4 -417 -4 -3 -200 -7 -437 -7 l-430 -1
-1 80 c0 76 0 313 1 345 0 13 54 15 435 15 380 0 435 -2 436 -15z"/>
<path d="M3375 4258 c-217 -18 -447 -96 -631 -213 -326 -208 -543 -516 -630
-893 -47 -202 -41 -472 15 -682 104 -390 403 -745 766 -910 39 -18 77 -36 86
-40 24 -12 218 -68 259 -74 19 -3 53 -8 75 -12 97 -16 315 -10 435 11 293 52
576 205 780 422 64 68 160 187 160 199 0 3 8 18 19 32 57 81 132 259 166 392
35 137 40 181 40 370 -1 189 -21 308 -81 468 -78 211 -171 357 -328 515 -300
303 -701 450 -1131 415z"/>
</g>
</svg>
